<?xml version="1.0" encoding="UTF-8"?><svg xmlns="http://www.w3.org/2000/svg" xmlns:xlink="http://www.w3.org/1999/xlink" version="1.1" id="Layer_1" x="0px" y="0px" viewBox="0 0 30 30" xml:space="preserve"><g fill="#303C42"><path d="M15.5 22a.5.5 0 0 0 .5-.5c0-.18-.1-.33-.242-.418-.011-.036-.017-.074-.036-.108a7.322 7.322 0 0 1-.346-.681.5.5 0 0 0-.455-.293h-1.92v-1h.994a.502.502 0 0 0 .466-.682c-.463-1.185-.483-2.537-.484-2.581 0-.458.088-.889.26-1.28a.5.5 0 0 0-.328-.685A7.347 7.347 0 0 0 12 13.5c-1.86 0-3.535.788-4.615 1.449-.695.426-1.158 1.185-1.313 2.051H2V4h20v2.775a.5.5 0 0 0 .365.481c.308.086.61.199.926.344A.5.5 0 0 0 24 7.146V4c0-1.103-.897-2-2-2H2C.898 2 0 2.897 0 4v13c0 1.103.898 2 2 2h9v1H8.5a.5.5 0 0 0-.5.5v1a.5.5 0 0 0 .5.5h7z"/><path d="M29.916 27.222c-.945-1.42-1.782-2.213-2.634-2.496l-1.42-.475a3.13 3.13 0 0 1-1.61-1.228.467.467 0 0 0-.083-.095l-.336-.3a.5.5 0 0 0-.333-.128h-.487l-.213-1.175c.73-.824 1.158-1.899 1.282-2.54.832-.657.943-3.019.943-3.047 0-.418-.128-.966-.447-1.307.229-.426.408-.998.44-1.647l.313-.31a.5.5 0 0 0 .147-.355c0-1.98-1.921-4.119-5.025-4.119-1.755 0-2.628.618-2.959.934-.834.188-2.065 1.261-2.065 2.733l-.002.437c-.009 1.041 0 1.755.096 2.232-.391.327-.546.943-.546 1.402 0 .028.11 2.39.942 3.047.122.632.54 1.684 1.251 2.504l-.408 1.211h-.546a.5.5 0 0 0-.416.223l-.216.323c-.44.662-.858 1.01-1.443 1.205l-1.422.474c-.852.284-1.689 1.078-2.635 2.498A.5.5 0 0 0 10.5 28l19-.001a.5.5 0 0 0 .416-.777z"/><circle cx="12.0000935" cy="10" r="3"/></g><metadata><rdf:RDF xmlns:rdf="http://www.w3.org/1999/02/22-rdf-syntax-ns#" xmlns:rdfs="http://www.w3.org/2000/01/rdf-schema#" xmlns:dc="http://purl.org/dc/elements/1.1/"><rdf:Description about="https://iconscout.com/legal#licenses" dc:title="video,meeting,conference,online" dc:description="video,meeting,conference,online" dc:publisher="Iconscout" dc:date="2017-11-29" dc:format="image/svg+xml" dc:language="en"><dc:creator><rdf:Bag><rdf:li>Those Icons</rdf:li></rdf:Bag></dc:creator></rdf:Description></rdf:RDF></metadata></svg>